<svg xmlns="http://www.w3.org/2000/svg" width="180" height="180" viewBox="0 0 180 180">
  <path id="illustrator" d="M83.219,84.889l2.149,13.778H75.957l2.445-13.7c.667-3.852,1.63-10.667,2.371-15.111h.3C81.589,74.3,82.478,80.889,83.219,84.889ZM180,90h0a90.021,90.021,0,0,1-90.037,90h0A90.1,90.1,0,0,1,0,90H0A90.021,90.021,0,0,1,90.037,0h0A90.005,90.005,0,0,1,180,90Zm-78.18,33.778L89,57.778H73.586l-14.3,66h12.45L74.7,108.667H86.554l2.816,15.111Zm18.9-47.926H107.9v47.926h12.82Zm0-12.741c0-4.3-2.816-6.963-6.6-6.963a6.524,6.524,0,0,0-6.6,6.963c-.074,4.148,2.816,6.963,6.373,6.963A6.534,6.534,0,0,0,120.716,63.111Z" fill="#f47e22"/>
</svg>
