<svg id="react" xmlns="http://www.w3.org/2000/svg" width="185.592" height="165.139" viewBox="0 0 185.592 165.139">
  <circle id="Ellipse_3" data-name="Ellipse 3" cx="16.584" cy="16.584" r="16.584" transform="translate(76.245 65.802)" fill="#00d8ff"/>
  <g id="Group_651" data-name="Group 651" transform="translate(0 44.726)">
    <path id="Path_393" data-name="Path 393" d="M111.329,261.251c-23.29,0-43.64-2.742-58.869-7.962-9.878-3.37-18.269-7.862-24.248-12.983C21.87,234.889,18.5,228.975,18.5,223.26c0-10.968,12.025-21.7,32.209-28.708C67.227,188.8,88.766,185.6,111.3,185.6c22.134,0,43.375,3.105,59.794,8.787,9.613,3.3,17.707,7.6,23.455,12.355,6.244,5.22,9.547,10.935,9.547,16.518,0,11.4-13.445,22.927-35.117,30.1C153.647,258.443,133.165,261.251,111.329,261.251Zm0-67.722c-21.374,0-42.516,3.105-57.977,8.49-18.566,6.475-26.891,15.328-26.891,21.242,0,6.145,8.953,15.824,28.576,22.53,14.4,4.922,33.894,7.532,56.292,7.532,21.01,0,40.6-2.643,55.169-7.5,20.383-6.772,29.7-16.452,29.7-22.563,0-3.138-2.379-6.838-6.706-10.439-4.988-4.162-12.256-7.962-20.944-10.968C152.921,196.5,132.6,193.528,111.329,193.528Z" transform="translate(-18.5 -185.6)" fill="#00d8ff"/>
  </g>
  <g id="Group_652" data-name="Group 652" transform="translate(35.896)">
    <path id="Path_394" data-name="Path 394" d="M146.465,215.253a17.418,17.418,0,0,1-8.853-2.18c-9.481-5.484-12.785-21.275-8.787-42.252,3.271-17.211,11.265-37.429,22.53-56.953,11.067-19.16,24.347-36.008,37.462-47.406,7.664-6.673,15.427-11.562,22.431-14.139,7.631-2.808,14.238-2.808,19.061-.033,9.878,5.682,13.148,23.125,8.523,45.457-3.27,15.857-11.067,34.984-21.968,53.914-11.628,20.152-24.182,36.4-36.306,47.009-7.862,6.871-15.956,11.893-23.356,14.5A32.2,32.2,0,0,1,146.465,215.253Zm8.292-99.4,3.436,1.982c-10.67,18.5-18.566,38.354-21.605,54.475-3.667,19.326-.132,30.954,4.955,33.894a9.777,9.777,0,0,0,4.922,1.123c6.574,0,16.914-4.162,28.873-14.6,11.463-10.01,23.455-25.6,34.654-44.994,10.505-18.2,17.971-36.5,21.077-51.535,4.328-21.043.595-33.927-4.724-37-2.709-1.553-7.1-1.354-12.388.595-6.112,2.246-13.016,6.64-19.953,12.686-12.454,10.836-25.173,26.957-35.81,45.39Z" transform="translate(-127.159 -50.212)" fill="#00d8ff"/>
  </g>
  <g id="Group_653" data-name="Group 653" transform="translate(35.937 0.16)">
    <path id="Path_395" data-name="Path 395" d="M221.8,215.676c-8.986,0-20.383-5.418-32.275-15.659-13.28-11.43-26.792-28.443-38.09-47.967h0c-11.1-19.16-19.028-39.081-22.365-56.16-1.949-9.977-2.312-19.127-1.057-26.494,1.387-8.028,4.658-13.743,9.514-16.551,9.845-5.715,26.593.165,43.64,15.328,12.091,10.736,24.776,27.056,35.711,45.952,11.661,20.152,19.491,39.147,22.6,54.938,2.015,10.241,2.346,19.755.925,27.485-1.52,8.226-4.955,14.073-9.911,16.947A16.968,16.968,0,0,1,221.8,215.676Zm-63.494-67.59c10.7,18.5,23.984,35.249,36.4,45.919,14.9,12.818,26.726,15.593,31.846,12.619,5.319-3.072,9.217-15.659,5.187-36.008-2.973-14.932-10.472-33.1-21.7-52.493-10.538-18.2-22.662-33.828-34.125-44-16.055-14.271-29.071-17.476-34.39-14.4-2.709,1.553-4.724,5.484-5.682,11.034-1.09,6.409-.76,14.6,1.024,23.62,3.171,16.22,10.77,35.282,21.44,53.715Z" transform="translate(-127.284 -50.696)" fill="#00d8ff"/>
  </g>
</svg>
